<svg width="292" height="125" viewBox="0 0 292 125" fill="none" xmlns="http://www.w3.org/2000/svg">
<mask id="mask0_203_26" style="mask-type:luminance" maskUnits="userSpaceOnUse" x="0" y="0" width="292" height="125">
<path d="M281.571 0H10.4286C4.66903 0 0 4.6637 0 10.4167V114.583C0 120.336 4.66903 125 10.4286 125H281.571C287.331 125 292 120.336 292 114.583V10.4167C292 4.6637 287.331 0 281.571 0Z" fill="white"/>
</mask>
<g mask="url(#mask0_203_26)">
<path d="M10.4284 0.868042H281.571C286.852 0.868042 291.131 5.1431 291.131 10.4166V114.583C291.131 119.857 286.852 124.132 281.571 124.132H10.4284C5.14883 124.132 0.868896 119.857 0.868896 114.583V10.4166C0.868896 5.1431 5.14883 0.868042 10.4284 0.868042Z" fill="white" stroke="#0D0F12" stroke-miterlimit="10"/>
<path d="M292 97.2222H0V125H292V97.2222Z" fill="#0D0F12"/>
<path d="M93.9157 116.519C93.3749 116.519 92.8843 116.418 92.4435 116.214C92.0029 116.007 91.6528 115.709 91.3937 115.321C91.1344 114.929 91.0049 114.455 91.0049 113.9C91.0049 113.412 91.1012 113.016 91.2938 112.713C91.4863 112.406 91.7436 112.165 92.0658 111.992C92.3881 111.818 92.7435 111.688 93.1323 111.603C93.5249 111.514 93.9193 111.444 94.3156 111.392C94.8341 111.326 95.2543 111.276 95.5766 111.242C95.9025 111.205 96.1396 111.144 96.2876 111.059C96.4394 110.974 96.5153 110.826 96.5153 110.615V110.571C96.5153 110.024 96.3653 109.598 96.0653 109.295C95.7692 108.992 95.3192 108.84 94.7155 108.84C94.0897 108.84 93.599 108.977 93.2435 109.251C92.8879 109.524 92.638 109.817 92.4936 110.127L91.2493 109.683C91.4714 109.165 91.7677 108.762 92.1381 108.474C92.5122 108.181 92.9194 107.978 93.3602 107.863C93.8046 107.745 94.2416 107.686 94.671 107.686C94.9451 107.686 95.2599 107.719 95.6155 107.786C95.9746 107.848 96.321 107.98 96.6542 108.18C96.9912 108.379 97.2709 108.681 97.493 109.084C97.7153 109.487 97.8264 110.027 97.8264 110.704V116.319H96.5153V115.165H96.4488C96.3598 115.35 96.2117 115.548 96.0043 115.759C95.797 115.97 95.521 116.149 95.1767 116.297C94.8322 116.445 94.4119 116.519 93.9157 116.519ZM94.1156 115.343C94.634 115.343 95.0712 115.241 95.4266 115.038C95.7859 114.834 96.0561 114.572 96.2376 114.25C96.4229 113.928 96.5153 113.59 96.5153 113.234V112.036C96.4599 112.102 96.3377 112.164 96.1488 112.219C95.9637 112.271 95.7488 112.317 95.5045 112.358C95.2637 112.395 95.0286 112.428 94.799 112.458C94.573 112.484 94.3897 112.506 94.249 112.524C93.9082 112.569 93.5898 112.641 93.2934 112.741C93.0009 112.837 92.7638 112.983 92.5824 113.179C92.4047 113.371 92.3158 113.634 92.3158 113.967C92.3158 114.422 92.4844 114.766 92.8214 114.999C93.162 115.228 93.5934 115.343 94.1156 115.343ZM102.722 116.319V107.797H104.033V116.319H102.722ZM103.389 106.376C103.133 106.376 102.913 106.289 102.728 106.115C102.546 105.942 102.455 105.733 102.455 105.489C102.455 105.244 102.546 105.035 102.728 104.861C102.913 104.688 103.133 104.601 103.389 104.601C103.644 104.601 103.863 104.688 104.044 104.861C104.229 105.035 104.322 105.244 104.322 105.489C104.322 105.733 104.229 105.942 104.044 106.115C103.863 106.289 103.644 106.376 103.389 106.376ZM110.248 104.956V116.319H108.937V104.956H110.248ZM117.663 116.519C117.122 116.519 116.632 116.418 116.191 116.214C115.75 116.007 115.4 115.709 115.141 115.321C114.882 114.929 114.752 114.455 114.752 113.9C114.752 113.412 114.848 113.016 115.041 112.713C115.233 112.406 115.491 112.165 115.813 111.992C116.135 111.818 116.491 111.688 116.88 111.603C117.272 111.514 117.667 111.444 118.063 111.392C118.581 111.326 119.002 111.276 119.324 111.242C119.65 111.205 119.887 111.144 120.035 111.059C120.187 110.974 120.263 110.826 120.263 110.615V110.571C120.263 110.024 120.113 109.598 119.813 109.295C119.516 108.992 119.066 108.84 118.463 108.84C117.837 108.84 117.346 108.977 116.991 109.251C116.635 109.524 116.385 109.817 116.241 110.127L114.997 109.683C115.219 109.165 115.515 108.762 115.885 108.474C116.259 108.181 116.667 107.978 117.107 107.863C117.552 107.745 117.989 107.686 118.418 107.686C118.692 107.686 119.007 107.719 119.363 107.786C119.722 107.848 120.068 107.98 120.401 108.18C120.738 108.379 121.018 108.681 121.24 109.084C121.462 109.487 121.574 110.027 121.574 110.704V116.319H120.263V115.165H120.196C120.107 115.35 119.959 115.548 119.752 115.759C119.544 115.97 119.268 116.149 118.924 116.297C118.579 116.445 118.159 116.519 117.663 116.519ZM117.863 115.343C118.381 115.343 118.818 115.241 119.174 115.038C119.533 114.834 119.803 114.572 119.985 114.25C120.17 113.928 120.263 113.59 120.263 113.234V112.036C120.207 112.102 120.085 112.164 119.896 112.219C119.711 112.271 119.496 112.317 119.252 112.358C119.011 112.395 118.776 112.428 118.546 112.458C118.32 112.484 118.137 112.506 117.996 112.524C117.655 112.569 117.337 112.641 117.041 112.741C116.748 112.837 116.511 112.983 116.33 113.179C116.152 113.371 116.063 113.634 116.063 113.967C116.063 114.422 116.232 114.766 116.568 114.999C116.909 115.228 117.341 115.343 117.863 115.343ZM126.647 116.319V104.956H127.958V109.151H128.069C128.165 109.003 128.299 108.814 128.469 108.585C128.643 108.352 128.891 108.144 129.213 107.963C129.539 107.778 129.98 107.686 130.535 107.686C131.254 107.686 131.887 107.865 132.435 108.224C132.983 108.583 133.411 109.091 133.719 109.75C134.026 110.408 134.18 111.185 134.18 112.08C134.18 112.983 134.026 113.765 133.719 114.427C133.411 115.086 132.985 115.596 132.441 115.959C131.897 116.318 131.269 116.497 130.558 116.497C130.01 116.497 129.571 116.406 129.241 116.225C128.912 116.04 128.658 115.831 128.48 115.598C128.302 115.361 128.165 115.165 128.069 115.01H127.914V116.319H126.647ZM127.936 112.058C127.936 112.702 128.03 113.27 128.219 113.761C128.408 114.25 128.684 114.633 129.047 114.91C129.41 115.184 129.854 115.321 130.38 115.321C130.928 115.321 131.385 115.176 131.752 114.888C132.122 114.596 132.4 114.203 132.585 113.712C132.774 113.216 132.869 112.665 132.869 112.058C132.869 111.459 132.776 110.919 132.591 110.438C132.409 109.953 132.133 109.57 131.763 109.289C131.396 109.005 130.936 108.862 130.38 108.862C129.847 108.862 129.399 108.997 129.036 109.267C128.673 109.534 128.399 109.907 128.214 110.388C128.028 110.865 127.936 111.422 127.936 112.058ZM142.265 116.497C141.443 116.497 140.734 116.316 140.138 115.953C139.545 115.587 139.088 115.077 138.765 114.422C138.447 113.763 138.288 112.998 138.288 112.125C138.288 111.252 138.447 110.482 138.765 109.817C139.088 109.147 139.536 108.625 140.11 108.252C140.688 107.874 141.361 107.686 142.132 107.686C142.576 107.686 143.015 107.76 143.448 107.908C143.882 108.056 144.276 108.296 144.632 108.629C144.987 108.958 145.27 109.395 145.481 109.939C145.693 110.482 145.798 111.152 145.798 111.947V112.502H139.221V111.37H144.465C144.465 110.889 144.369 110.46 144.176 110.083C143.987 109.705 143.717 109.408 143.365 109.189C143.017 108.971 142.606 108.862 142.132 108.862C141.61 108.862 141.158 108.992 140.776 109.251C140.399 109.506 140.108 109.839 139.904 110.249C139.701 110.66 139.599 111.1 139.599 111.57V112.324C139.599 112.968 139.71 113.514 139.932 113.961C140.158 114.405 140.471 114.744 140.871 114.977C141.271 115.206 141.736 115.321 142.265 115.321C142.61 115.321 142.921 115.273 143.198 115.176C143.48 115.077 143.723 114.929 143.926 114.732C144.13 114.533 144.287 114.285 144.398 113.989L145.665 114.344C145.532 114.773 145.307 115.151 144.993 115.476C144.678 115.798 144.289 116.049 143.826 116.231C143.363 116.408 142.843 116.497 142.265 116.497ZM151.606 104.956V116.319H150.295V104.956H151.606ZM162.554 109.705L161.376 110.038C161.302 109.842 161.193 109.652 161.049 109.467C160.908 109.278 160.715 109.123 160.471 109.001C160.227 108.879 159.914 108.818 159.532 108.818C159.01 108.818 158.575 108.938 158.227 109.178C157.882 109.415 157.71 109.717 157.71 110.083C157.71 110.408 157.829 110.665 158.066 110.854C158.303 111.043 158.673 111.2 159.177 111.326L160.443 111.636C161.206 111.821 161.775 112.104 162.149 112.485C162.523 112.863 162.71 113.349 162.71 113.945C162.71 114.433 162.569 114.869 162.287 115.254C162.01 115.639 161.621 115.942 161.121 116.164C160.621 116.386 160.04 116.497 159.377 116.497C158.506 116.497 157.786 116.308 157.216 115.931C156.645 115.554 156.284 115.003 156.133 114.278L157.377 113.967C157.495 114.426 157.719 114.769 158.049 114.999C158.382 115.228 158.817 115.343 159.354 115.343C159.965 115.343 160.451 115.213 160.81 114.955C161.173 114.692 161.354 114.377 161.354 114.011C161.354 113.715 161.251 113.467 161.043 113.268C160.836 113.064 160.517 112.913 160.088 112.813L158.666 112.48C157.884 112.295 157.31 112.008 156.944 111.62C156.581 111.228 156.399 110.738 156.399 110.149C156.399 109.668 156.534 109.243 156.805 108.873C157.079 108.503 157.451 108.213 157.921 108.002C158.395 107.791 158.932 107.686 159.532 107.686C160.376 107.686 161.039 107.871 161.521 108.241C162.006 108.611 162.35 109.099 162.554 109.705ZM168.141 116.408C167.867 116.408 167.632 116.31 167.436 116.114C167.24 115.918 167.141 115.683 167.141 115.41C167.141 115.136 167.24 114.901 167.436 114.705C167.632 114.509 167.867 114.411 168.141 114.411C168.415 114.411 168.65 114.509 168.847 114.705C169.043 114.901 169.141 115.136 169.141 115.41C169.141 115.591 169.095 115.757 169.002 115.909C168.913 116.061 168.793 116.183 168.641 116.275C168.493 116.364 168.326 116.408 168.141 116.408ZM177.463 116.497C176.693 116.497 176.017 116.314 175.436 115.948C174.857 115.581 174.405 115.069 174.08 114.411C173.758 113.752 173.597 112.983 173.597 112.102C173.597 111.215 173.758 110.44 174.08 109.778C174.405 109.115 174.857 108.601 175.436 108.235C176.017 107.869 176.693 107.686 177.463 107.686C178.233 107.686 178.907 107.869 179.484 108.235C180.066 108.601 180.518 109.115 180.84 109.778C181.167 110.44 181.33 111.215 181.33 112.102C181.33 112.983 181.167 113.752 180.84 114.411C180.518 115.069 180.066 115.581 179.484 115.948C178.907 116.314 178.233 116.497 177.463 116.497ZM177.463 115.321C178.049 115.321 178.53 115.171 178.907 114.871C179.284 114.572 179.564 114.178 179.747 113.689C179.927 113.201 180.018 112.672 180.018 112.102C180.018 111.533 179.927 111.002 179.747 110.51C179.564 110.018 179.284 109.62 178.907 109.317C178.53 109.014 178.049 108.862 177.463 108.862C176.877 108.862 176.396 109.014 176.018 109.317C175.641 109.62 175.361 110.018 175.181 110.51C174.998 111.002 174.908 111.533 174.908 112.102C174.908 112.672 174.998 113.201 175.181 113.689C175.361 114.178 175.641 114.572 176.018 114.871C176.396 115.171 176.877 115.321 177.463 115.321ZM185.833 116.319V107.797H187.101V109.084H187.189C187.344 108.662 187.625 108.32 188.034 108.057C188.441 107.795 188.899 107.664 189.41 107.664C189.508 107.664 189.628 107.665 189.772 107.669C189.916 107.673 190.026 107.678 190.099 107.686V109.017C190.055 109.006 189.953 108.99 189.795 108.968C189.638 108.942 189.473 108.929 189.299 108.929C188.886 108.929 188.515 109.016 188.189 109.189C187.867 109.36 187.612 109.596 187.422 109.9C187.236 110.199 187.144 110.542 187.144 110.926V116.319H185.833ZM197.341 119.693C196.707 119.693 196.163 119.612 195.708 119.449C195.252 119.29 194.873 119.079 194.569 118.816C194.268 118.557 194.03 118.28 193.853 117.984L194.896 117.252C195.016 117.407 195.165 117.585 195.346 117.784C195.529 117.988 195.775 118.163 196.092 118.311C196.41 118.463 196.825 118.539 197.341 118.539C198.03 118.539 198.598 118.372 199.046 118.04C199.495 117.707 199.719 117.185 199.719 116.475V114.744H199.608C199.511 114.899 199.373 115.091 199.196 115.321C199.022 115.546 198.77 115.748 198.44 115.926C198.115 116.099 197.673 116.186 197.119 116.186C196.431 116.186 195.812 116.023 195.263 115.698C194.719 115.372 194.288 114.899 193.969 114.278C193.655 113.656 193.497 112.901 193.497 112.014C193.497 111.141 193.65 110.381 193.957 109.733C194.265 109.082 194.693 108.579 195.242 108.224C195.789 107.865 196.422 107.686 197.141 107.686C197.696 107.686 198.137 107.778 198.462 107.963C198.793 108.144 199.045 108.352 199.219 108.585C199.396 108.814 199.533 109.003 199.629 109.151H199.763V107.797H201.03V116.564C201.03 117.296 200.863 117.892 200.529 118.35C200.201 118.813 199.756 119.151 199.196 119.366C198.641 119.584 198.023 119.693 197.341 119.693ZM197.296 115.01C197.823 115.01 198.266 114.89 198.629 114.649C198.993 114.409 199.269 114.063 199.457 113.612C199.646 113.16 199.74 112.62 199.74 111.992C199.74 111.377 199.648 110.836 199.464 110.366C199.278 109.896 199.003 109.528 198.641 109.262C198.278 108.995 197.83 108.862 197.296 108.862C196.74 108.862 196.278 109.003 195.907 109.284C195.541 109.565 195.264 109.942 195.08 110.416C194.898 110.889 194.807 111.414 194.807 111.992C194.807 112.583 194.901 113.107 195.085 113.562C195.275 114.013 195.553 114.368 195.918 114.627C196.29 114.882 196.749 115.01 197.296 115.01Z" fill="white"/>
<path d="M117.495 32.9861V20.6736H119.956L122.021 29.4236L124.107 20.6736H126.547V32.9861H124.774V23.4861L122.709 32.9861H121.333L119.268 23.4861V32.9861H117.495ZM127.803 32.9861L130.201 20.6736H132.996L135.353 32.9861H133.142L132.642 30.4861H130.389L129.93 32.9861H127.803ZM130.431 29.4653H132.621L131.536 22.6111L130.431 29.4653ZM136.621 32.9861V20.6736H140.709C141.265 20.6736 141.731 20.757 142.106 20.9236C142.482 21.0903 142.767 21.3472 142.962 21.6945C143.17 22.0417 143.274 22.4931 143.274 23.0486V30.3403C143.274 31.0209 143.156 31.5556 142.92 31.9445C142.683 32.3334 142.35 32.6042 141.919 32.757C141.502 32.9097 141.008 32.9861 140.438 32.9861H136.621ZM138.686 31.9236H140.125C140.473 31.9236 140.751 31.8264 140.959 31.632C141.168 31.4236 141.272 31.0417 141.272 30.4861V23.2778C141.272 22.7222 141.168 22.3403 140.959 22.132C140.751 21.9236 140.473 21.8195 140.125 21.8195H138.686V31.9236ZM145.196 32.9861V20.6736H150.744V22.0903H147.282V25.8195H150.139V27.382H147.282V31.6111H150.744V32.9861H145.196ZM155.828 32.9861V20.6736H159.979C160.73 20.6736 161.314 20.8472 161.731 21.1945C162.148 21.5417 162.357 22.0556 162.357 22.7361V24.1736C162.357 24.5486 162.301 24.8889 162.19 25.1945C162.092 25.4861 161.939 25.7292 161.731 25.9236C161.55 26.1042 161.335 26.2292 161.084 26.2986C160.848 26.3681 160.625 26.4097 160.417 26.4236C160.667 26.4236 160.91 26.4514 161.147 26.507C161.383 26.5625 161.599 26.6736 161.793 26.8403C162.016 27.0347 162.19 27.2847 162.315 27.5903C162.454 27.8959 162.523 28.2709 162.523 28.7153V30.4236C162.523 31.1181 162.405 31.6528 162.169 32.0278C161.946 32.3889 161.627 32.6389 161.209 32.7778C160.806 32.9167 160.32 32.9861 159.749 32.9861H155.828ZM157.831 31.9236H159.311C159.562 31.9236 159.77 31.882 159.937 31.7986C160.118 31.7153 160.257 31.5556 160.354 31.3195C160.452 31.0834 160.5 30.7431 160.5 30.2986V28.7361C160.5 28.1528 160.375 27.7709 160.125 27.5903C159.888 27.3959 159.576 27.2986 159.186 27.2986H157.831V31.9236ZM157.831 26.007H159.145C159.562 26.007 159.882 25.882 160.104 25.632C160.326 25.382 160.438 24.9722 160.438 24.4028V23.0903C160.438 22.632 160.333 22.2986 160.125 22.0903C159.93 21.882 159.68 21.7778 159.374 21.7778H157.831V26.007ZM165.62 32.9861V27.6945L163.326 20.6736H165.307L166.6 24.882L166.704 25.5278L166.83 24.882L168.185 20.6736H170.042L167.622 27.7986V32.9861H165.62ZM174.913 32.9861V20.6736H176.895V25.8403H179.543V20.6736H181.525V32.9861H179.543V27.3403H176.895V32.9861H174.913ZM186.843 33.2361C186.371 33.2361 185.933 33.2014 185.529 33.132C185.126 33.0625 184.779 32.9236 184.487 32.7153C184.195 32.507 183.965 32.1945 183.798 31.7778C183.631 31.3611 183.548 30.7986 183.548 30.0903V20.6736H185.55V30.6111C185.55 30.9861 185.606 31.2778 185.717 31.4861C185.842 31.6806 186.002 31.8125 186.197 31.882C186.391 31.9514 186.607 31.9861 186.843 31.9861C187.08 31.9861 187.295 31.9514 187.49 31.882C187.685 31.8125 187.838 31.6806 187.949 31.4861C188.074 31.2778 188.137 30.9861 188.137 30.6111V20.6736H190.118V30.0695C190.118 30.7778 190.035 31.3472 189.868 31.7778C189.715 32.1945 189.492 32.507 189.2 32.7153C188.908 32.9236 188.561 33.0625 188.157 33.132C187.754 33.2014 187.316 33.2361 186.843 33.2361ZM192.165 32.9861V20.6736H194.627L196.691 29.4236L198.777 20.6736H201.217V32.9861H199.445V23.4861L197.38 32.9861H196.003L193.938 23.4861V32.9861H192.165ZM202.472 32.9861L204.871 20.6736H207.666L210.023 32.9861H207.812L207.311 30.4861H205.059L204.6 32.9861H202.472ZM205.1 29.4653H207.29L206.206 22.6111L205.1 29.4653ZM211.291 32.9861V20.6736H213.023L216.089 28.9653V20.6736H217.861V32.9861H216.109L213.064 25.132V32.9861H211.291ZM222.825 33.132C222.144 33.132 221.553 33.0278 221.053 32.8195C220.552 32.6111 220.17 32.2431 219.905 31.7153C219.655 31.1875 219.53 30.4445 219.53 29.4861V28.7778C219.864 28.7778 220.204 28.7778 220.552 28.7778C220.9 28.7778 221.24 28.7778 221.574 28.7778V29.6528C221.574 30.2361 221.63 30.6875 221.741 31.007C221.852 31.3264 222.005 31.5486 222.2 31.6736C222.394 31.7847 222.617 31.8403 222.867 31.8403C223.27 31.8403 223.59 31.7084 223.827 31.4445C224.077 31.1667 224.202 30.6528 224.202 29.9028C224.202 29.3472 224.119 28.9306 223.952 28.6528C223.785 28.375 223.521 28.1528 223.159 27.9861C222.812 27.8056 222.36 27.6042 221.803 27.382C221.345 27.1736 220.948 26.9306 220.615 26.6528C220.281 26.375 220.031 26.0209 219.864 25.5903C219.697 25.1597 219.613 24.625 219.613 23.9861C219.613 23.2084 219.711 22.5764 219.905 22.0903C220.114 21.5903 220.462 21.2292 220.948 21.007C221.435 20.7709 222.088 20.6528 222.909 20.6528C223.966 20.6528 224.772 20.8959 225.328 21.382C225.884 21.8542 226.163 22.5486 226.163 23.4653V24.9028C225.843 24.9028 225.516 24.9028 225.182 24.9028C224.862 24.9028 224.536 24.9028 224.202 24.9028V24.0486C224.202 23.4097 224.098 22.9514 223.889 22.6736C223.694 22.382 223.375 22.2361 222.93 22.2361C222.471 22.2361 222.137 22.375 221.929 22.6528C221.734 22.9167 221.637 23.3403 221.637 23.9236C221.637 24.4236 221.734 24.8125 221.929 25.0903C222.123 25.3542 222.374 25.5625 222.679 25.7153C222.999 25.8681 223.326 26.007 223.66 26.132C224.285 26.3681 224.793 26.6111 225.182 26.8611C225.572 27.1111 225.857 27.4445 226.037 27.8611C226.218 28.2778 226.309 28.8681 226.309 29.632C226.309 30.507 226.163 31.2014 225.871 31.7153C225.592 32.2153 225.189 32.5764 224.661 32.7986C224.146 33.0209 223.535 33.132 222.825 33.132ZM232.746 32.9861L230.848 20.6736H232.892L234.206 30.3611L235.729 20.6736H237.377L238.858 30.3611L240.213 20.6736H242.257L240.359 32.9861H238.044L236.542 24.9861L235.082 32.9861H232.746ZM243.636 32.9861V20.6736H245.617V32.9861H243.636ZM248.836 32.9861V22.0903H246.875V20.6736H252.841V22.0903H250.838V32.9861H248.836ZM254.085 32.9861V20.6736H256.067V25.8403H258.715V20.6736H260.697V32.9861H258.715V27.3403H256.067V32.9861H254.085ZM265.574 32.9861L267.972 20.6736H270.767L273.124 32.9861H270.913L270.413 30.4861H268.16L267.701 32.9861H265.574ZM268.202 29.4653H270.392L269.307 22.6111L268.202 29.4653ZM274.393 32.9861V20.6736H276.374V32.9861H274.393Z" fill="#0D0F12"/>
<mask id="mask1_203_26" style="mask-type:luminance" maskUnits="userSpaceOnUse" x="48" y="43" width="46" height="46">
<path d="M93.857 43.4028H48.6665V88.5417H93.857V43.4028Z" fill="white"/>
</mask>
<g mask="url(#mask1_203_26)">
<path fill-rule="evenodd" clip-rule="evenodd" d="M62.2235 44.2467C62.2235 43.7806 62.6019 43.4028 63.0685 43.4028C63.535 43.4028 63.9134 43.7806 63.9134 44.2467V56.9443H70.4167V44.2467C70.4167 43.7806 70.7949 43.4028 71.2616 43.4028C71.7283 43.4028 72.1065 43.7806 72.1065 44.2467V56.9443H78.6099V44.2467C78.6099 43.7806 78.9881 43.4028 79.4548 43.4028C79.9215 43.4028 80.2997 43.7806 80.2997 44.2467V56.9443H93.0086C93.4772 56.9443 93.857 57.3238 93.857 57.7917C93.857 58.2597 93.4772 58.6391 93.0086 58.6391H80.2997V65.1249H93.0086C93.4772 65.1249 93.857 65.5042 93.857 65.9722C93.857 66.4403 93.4772 66.8196 93.0086 66.8196H80.2997V73.2832H92.9975C93.4722 73.2832 93.857 73.6676 93.857 74.1417C93.857 74.6158 93.4722 75.0002 92.9975 75.0002H80.2997V87.6978C80.2997 88.1639 79.9215 88.5417 79.4548 88.5417C78.9881 88.5417 78.6099 88.1639 78.6099 87.6978V75.0002H72.1065V87.6978C72.1065 88.1639 71.7283 88.5417 71.2616 88.5417C70.7949 88.5417 70.4167 88.1639 70.4167 87.6978V75.0002H63.9134V87.6978C63.9134 88.1639 63.535 88.5417 63.0685 88.5417C62.6019 88.5417 62.2235 88.1639 62.2235 87.6978V75.0002H49.526C49.0513 75.0002 48.6665 74.6158 48.6665 74.1417C48.6665 73.6676 49.0513 73.2832 49.526 73.2832H62.2235V66.8196H49.5149C49.0463 66.8196 48.6665 66.4403 48.6665 65.9722C48.6665 65.5042 49.0463 65.1249 49.5149 65.1249H62.2235V58.6391H49.5149C49.0463 58.6391 48.6665 58.2597 48.6665 57.7917C48.6665 57.3238 49.0463 56.9443 49.5149 56.9443H62.2235V44.2467ZM63.9134 58.6391V65.1249H70.4167V58.6391H63.9134ZM72.1065 58.6391V65.1249H78.6099V58.6391H72.1065ZM78.6099 66.8196H72.1065V73.2832H78.6099V66.8196ZM70.4167 73.2832V66.8196H63.9134V73.2832H70.4167Z" fill="#0D0F12"/>
<path d="M81.6904 48.6111H60.8332C56.9935 48.6111 53.8809 51.7203 53.8809 55.5556V76.3889C53.8809 80.2242 56.9935 83.3334 60.8332 83.3334H81.6904C85.5301 83.3334 88.6428 80.2242 88.6428 76.3889V55.5556C88.6428 51.7203 85.5301 48.6111 81.6904 48.6111Z" fill="#0D0F12"/>
<path d="M69.1558 62.5695L65.0712 72.5C65.0248 72.6389 64.9437 72.7488 64.8279 72.8299C64.712 72.911 64.5903 72.9514 64.4629 72.9514C64.2427 72.9514 64.0805 72.8936 63.9762 72.7778C63.8719 72.662 63.8198 72.5231 63.8198 72.3611C63.8082 72.2801 63.8198 72.1933 63.8546 72.1007L68.3562 61.1632C68.4141 61.0013 68.501 60.8855 68.6169 60.816C68.7443 60.7349 68.8834 60.7002 69.0341 60.7118C69.1846 60.7118 69.3179 60.7523 69.4338 60.8334C69.5612 60.9144 69.6482 61.0243 69.6946 61.1632L74.1788 71.9966C74.2136 72.0891 74.231 72.1818 74.231 72.2743C74.231 72.4827 74.1615 72.6506 74.0224 72.7778C73.8834 72.8936 73.7269 72.9514 73.5531 72.9514C73.4141 72.9514 73.2865 72.911 73.1708 72.8299C73.0548 72.7488 72.9679 72.6332 72.91 72.4827L68.7734 62.5521L69.1558 62.5695ZM65.9403 69.6702L66.5312 68.316H71.6934L71.9541 69.6702H65.9403ZM77.5777 72.2049C77.5777 72.4016 77.5024 72.5695 77.3517 72.7084C77.2127 72.8473 77.0448 72.9167 76.8477 72.9167C76.6276 72.9167 76.4538 72.8473 76.3263 72.7084C76.1989 72.5695 76.1351 72.4016 76.1351 72.2049V61.4757C76.1351 61.2674 76.2046 61.0995 76.3436 60.9723C76.4827 60.8334 76.6565 60.7639 76.8651 60.7639C77.0622 60.7639 77.2301 60.8334 77.3691 60.9723C77.5082 61.0995 77.5777 61.2674 77.5777 61.4757V72.2049Z" fill="white"/>
<path d="M79.9521 53.8195H62.5712C60.6513 53.8195 59.095 55.374 59.095 57.2917V74.6528C59.095 76.5704 60.6513 78.125 62.5712 78.125H79.9521C81.872 78.125 83.4283 76.5704 83.4283 74.6528V57.2917C83.4283 55.374 81.872 53.8195 79.9521 53.8195Z" stroke="white"/>
</g>
<path d="M53.8808 12.1528H12.1665V53.8195H53.8808V12.1528Z" fill="white"/>
<path fill-rule="evenodd" clip-rule="evenodd" d="M41.5205 18.9163C38.9109 17.3464 36.0794 16.6119 33.5039 16.5731C31.3752 16.5793 29.7369 16.8464 28.1387 17.3418C26.6648 17.7998 25.2995 18.4955 24.0087 19.3403C23.3866 19.7471 22.7054 19.5825 22.406 18.9582C22.1609 18.4459 22.3517 17.9038 22.9583 17.5156C24.5516 16.4939 26.2397 15.6865 28.072 15.174C31.8297 14.1244 35.5487 14.247 39.2212 15.525C42.3567 16.6166 45.0052 18.4474 47.1773 20.9644C47.6334 21.4924 47.6257 22.1275 47.1493 22.5498C46.7009 22.949 46.0291 22.8636 45.5822 22.3419C44.4141 20.9801 43.0611 19.8432 41.5205 18.9163ZM20.4278 46.2269C19.3634 42.7703 18.8437 39.233 18.8437 35.2113L18.8422 35.2129C18.8517 34.9794 18.8595 34.7361 18.8677 34.4846C18.9124 33.1056 18.9654 31.4802 19.3433 29.8837C19.9794 27.1912 21.2546 24.8432 23.2236 22.9054C25.4328 20.7314 28.0767 19.3913 31.1658 18.9846C34.6272 18.5295 37.8434 19.2314 40.7804 21.1165C42.9198 22.4908 44.5738 24.3262 45.7157 26.6073C46.355 27.8837 46.8451 29.2113 47.0082 30.6413C47.0608 31.112 46.8995 31.4783 46.4744 31.7082C45.8042 32.07 45.1044 31.6787 44.9431 30.8511C44.2356 27.2221 42.335 24.4023 39.1157 22.5839C34.9142 20.2113 30.6739 20.32 26.6028 22.8743C23.5432 24.7952 21.8039 27.7004 21.2098 31.2439C20.8358 33.466 20.8684 35.7238 21.0096 37.9707C21.1756 40.584 21.6892 43.1368 22.4339 45.6462C22.5099 45.8993 22.5036 46.2144 22.4277 46.4691C22.3004 46.8946 21.8753 47.1259 21.4238 47.1042C20.9274 47.0809 20.6046 46.7983 20.4278 46.2269ZM28.3064 42.0809C27.8114 39.9457 27.5493 37.7858 27.5027 35.5917L27.5043 35.5932C27.5259 35.2717 27.5445 34.9498 27.5631 34.628L27.5632 34.6262C27.6036 33.9306 27.6437 33.2347 27.7137 32.542C28.1389 28.32 32.8663 26.1243 36.2532 28.5917C38.0405 29.8945 38.6719 31.7082 38.4578 33.8913C38.0575 37.9691 38.99 41.7393 41.2335 45.1679C41.6022 45.7334 42.0264 46.2629 42.4497 46.7912C42.575 46.9476 42.7001 47.1038 42.8239 47.261C43.3745 47.9613 43.0643 48.8728 42.2079 49.011C41.7689 49.0809 41.4398 48.8837 41.1576 48.5606C39.5269 46.6927 38.2763 44.6026 37.4386 42.2656C36.7668 40.3929 36.3354 38.4705 36.2935 36.4799C36.2753 35.6097 36.3203 34.7377 36.3651 33.866C36.3775 33.6285 36.3896 33.3912 36.4006 33.1538C36.4859 31.3292 35.1903 29.8618 33.3177 29.6818C31.6451 29.5217 30.0875 30.7688 29.8455 32.4908C29.6251 34.0559 29.5987 35.629 29.6981 37.2066C29.9138 40.6228 30.7469 43.8821 32.2378 46.9597C32.5755 47.6573 32.9694 48.3276 33.3633 48.9978C33.532 49.2849 33.7011 49.5726 33.8654 49.862C34.1649 50.39 34.0361 51.0313 33.5598 51.3325C33.0525 51.6523 32.4302 51.5156 32.1045 51.011C30.3249 48.2533 29.0495 45.2827 28.3064 42.0809ZM40.762 33.165C40.7486 33.367 40.7328 33.5691 40.7171 33.7712C40.6817 34.2259 40.6464 34.6806 40.6377 35.1354C40.5602 39.1292 41.8387 42.637 44.4389 45.6634C44.5399 45.7814 44.6438 45.8962 44.757 46.0035C45.196 46.4196 45.8073 46.4288 46.2201 46.0314C46.6374 45.6307 46.6484 45.036 46.2775 44.5623C46.1496 44.3992 46.0197 44.237 45.8897 44.0748C45.4707 43.5521 45.0509 43.0283 44.6981 42.463C43.086 39.887 42.5508 37.0686 42.8022 34.0469C43.1234 30.1851 41.7595 27.0018 38.4952 24.8604C35.2122 22.7068 31.7414 22.612 28.2677 24.508C26.637 25.3978 25.4222 26.7084 24.5455 28.3387C24.2044 28.9722 24.3471 29.6214 24.9039 29.9163C25.4501 30.2068 26.032 29.9816 26.3841 29.3575C27.9635 26.5639 30.3746 25.2191 33.5614 25.328C37.3718 25.4584 40.5711 28.6959 40.7185 32.5064C40.7236 32.6523 40.722 32.7981 40.7203 32.9443C40.7194 33.0177 40.7185 33.0913 40.7185 33.165H40.7588H40.762ZM23.2501 35.5825C23.2036 38.7269 23.6753 41.7998 24.5565 44.8184C25.0793 46.6089 25.7822 48.3231 26.5734 50.0049C26.8278 50.5436 27.4174 50.7766 27.9357 50.5592C28.4724 50.3325 28.7161 49.7424 28.4881 49.1679C28.2962 48.6849 28.0937 48.2056 27.8914 47.7261C27.4866 46.767 27.0818 45.8082 26.7611 44.8215C25.6115 41.2781 25.129 37.6321 25.3477 33.9038C25.385 33.2625 24.9893 32.7486 24.4107 32.6912C23.8086 32.6321 23.292 33.0684 23.2564 33.7254C23.2326 34.1556 23.2382 34.5868 23.2437 35.0181C23.2461 35.2059 23.2501 35.3945 23.2501 35.5825ZM14.5228 33.3946C14.5122 33.2169 14.501 33.0313 14.4872 32.8342L14.4841 32.8327C14.5018 32.6471 14.5168 32.4511 14.5324 32.2481C14.5674 31.7924 14.6049 31.3021 14.6812 30.8186C15.2583 27.1587 16.664 23.862 19.0455 21.0033C19.4924 20.4677 20.127 20.4009 20.6157 20.8108C21.0796 21.199 21.0671 21.8108 20.6623 22.3636C20.5653 22.4959 20.4675 22.628 20.3698 22.7603C19.8384 23.4781 19.3048 24.1993 18.8764 24.9769C17.2955 27.8465 16.3816 30.8901 16.6857 34.2162C16.7431 34.8295 16.3196 35.3217 15.744 35.3792C15.1792 35.4351 14.6703 35.0189 14.6005 34.4103C14.5641 34.0846 14.5444 33.7557 14.5228 33.3946ZM51.5635 32.9505C51.5622 30.362 51.081 27.8714 50.0184 25.5033C49.6708 24.7301 48.8453 24.542 48.29 25.0979C47.961 25.4271 47.8866 25.8651 48.1053 26.3495C48.757 27.7983 49.1479 29.3155 49.3388 30.8884C49.5592 32.7097 49.5063 34.5203 49.1184 36.3186C48.9121 37.2766 49.6071 37.9474 50.4899 37.6601C50.8902 37.5297 51.0996 37.2176 51.1556 36.8309C51.1759 36.6906 51.1965 36.5507 51.217 36.4111C51.3843 35.2728 51.5484 34.1552 51.5635 32.9505ZM32.5032 40.9566C32.0797 39.1896 31.9323 37.3929 31.8935 35.174L31.8951 35.1755L31.9224 34.8205C31.963 34.287 32.0197 33.5446 32.0844 32.8044C32.1155 32.4379 32.3218 32.1849 32.66 32.0452C33.5101 31.6941 34.2255 32.2827 34.1169 33.2547C33.8438 35.6894 34.0051 38.0979 34.5497 40.483C34.7002 41.1445 34.3992 41.6972 33.8096 41.8432C33.1967 41.9955 32.6647 41.6321 32.5032 40.9566ZM45.013 36.1089C45.0844 38.2936 45.8416 40.2377 47.0859 42.0096C47.1822 42.1462 47.2845 42.2813 47.3977 42.4038C47.7778 42.817 48.383 42.8806 48.7972 42.5592C49.2611 42.199 49.3496 41.6089 49.0346 41.1104C48.9411 40.9623 48.846 40.8151 48.7508 40.6679C48.4395 40.1863 48.1278 39.704 47.8772 39.1927C47.3434 38.1026 47.1045 36.9287 47.0751 35.7129C47.0549 34.8821 46.3381 34.3915 45.6213 34.699C45.2551 34.8558 45.0565 35.1415 45.0161 35.5297C45.0024 35.6606 45.0061 35.7939 45.0097 35.9268C45.0114 35.9877 45.013 36.0485 45.013 36.1089ZM38.7915 50.3016C38.596 50.671 38.2624 50.8061 37.87 50.8356L37.8684 50.8372C37.4991 50.8077 37.209 50.6618 36.9778 50.362C35.9259 49.0002 35.0245 47.5453 34.2719 45.9986C33.9632 45.362 34.1339 44.7674 34.7018 44.4801C35.2479 44.2037 35.8049 44.4304 36.1416 45.0469C36.2245 45.1988 36.3067 45.3512 36.3889 45.5035C36.699 46.0778 37.0087 46.6514 37.3532 47.2037C37.6456 47.6709 37.9685 48.1196 38.2914 48.5684C38.4279 48.758 38.5643 48.9476 38.6983 49.1384C38.959 49.508 39.0072 49.8946 38.7915 50.3016Z" fill="#0D0F12"/>
<path d="M103.069 1.35899e-05V-0.868042H102.2H10.4285C4.18898 -0.868042 -0.869141 4.1843 -0.869141 10.4167V97.2222V98.0903H-9.30429e-05H102.2H103.069V97.2222V1.35899e-05Z" stroke="#0D0F12"/>
</g>
<path d="M116.24 63L118.336 53.544H119.632L121.696 63H120.608L120.096 60.808H117.776L117.296 63H116.24ZM117.808 60.248H120.08L118.96 54.776L117.808 60.248ZM122.946 63V53.544H123.954V63H122.946ZM125.657 59.128V58.424H128.905V59.128H125.657ZM132.585 63.176C132.201 63.176 131.849 63.1227 131.529 63.016C131.209 62.92 130.948 62.712 130.745 62.392C130.553 62.072 130.457 61.592 130.457 60.952V55.528C130.457 54.9307 130.559 54.4827 130.761 54.184C130.975 53.8853 131.257 53.6827 131.609 53.576C131.972 53.4693 132.388 53.416 132.857 53.416C133.327 53.416 133.737 53.4747 134.089 53.592C134.452 53.6987 134.735 53.9013 134.937 54.2C135.14 54.4987 135.241 54.9413 135.241 55.528V56.728H134.265V55.512C134.265 55.0853 134.201 54.7707 134.073 54.568C133.956 54.3653 133.791 54.232 133.577 54.168C133.375 54.0933 133.135 54.056 132.857 54.056C132.591 54.056 132.351 54.0933 132.137 54.168C131.924 54.232 131.759 54.3653 131.641 54.568C131.524 54.7707 131.465 55.0853 131.465 55.512V61.112C131.465 61.5387 131.524 61.8587 131.641 62.072C131.759 62.2747 131.924 62.408 132.137 62.472C132.351 62.536 132.591 62.568 132.857 62.568C133.273 62.568 133.609 62.4453 133.865 62.2C134.132 61.944 134.265 61.5813 134.265 61.112V59.144H133.033V58.52H135.241V63H134.489L134.441 62.088C134.409 62.1627 134.367 62.2373 134.313 62.312C134.271 62.376 134.233 62.4347 134.201 62.488C134.052 62.7013 133.844 62.872 133.577 63C133.321 63.1173 132.991 63.176 132.585 63.176ZM137.055 63V53.544H141.135V54.264H138.095V57.656H140.527V58.456H138.095V62.28H141.135V63H137.055ZM142.524 63V53.544H143.404L146.364 60.936V53.544H147.276V63H146.364L143.436 55.88V63H142.524ZM149.274 63V53.544H153.354V54.264H150.314V57.656H152.746V58.456H150.314V62.28H153.354V63H149.274ZM154.742 63V53.544H157.718C158.252 53.544 158.684 53.672 159.014 53.928C159.345 54.1733 159.51 54.568 159.51 55.112V56.648C159.51 57.192 159.345 57.6133 159.014 57.912C158.694 58.2107 158.257 58.3707 157.702 58.392V58.376C158.044 58.3973 158.3 58.52 158.47 58.744C158.641 58.9573 158.79 59.2933 158.918 59.752L159.894 63H158.774L157.91 59.816C157.825 59.5173 157.713 59.2507 157.574 59.016C157.446 58.7707 157.233 58.648 156.934 58.648H155.782V63H154.742ZM155.782 57.928H157.19C157.681 57.928 158.022 57.816 158.214 57.592C158.417 57.3573 158.518 57.016 158.518 56.568V55.288C158.518 54.8933 158.422 54.6053 158.23 54.424C158.049 54.232 157.766 54.136 157.382 54.136H155.782V57.928ZM160.599 63L162.695 53.544H163.991L166.055 63H164.967L164.455 60.808H162.135L161.655 63H160.599ZM162.167 60.248H164.439L163.319 54.776L162.167 60.248ZM167.573 63V54.264H165.989V53.544H170.197V54.264H168.581V63H167.573ZM171.383 63V53.544H175.463V54.264H172.423V57.656H174.855V58.456H172.423V62.28H175.463V63H171.383ZM176.852 63V53.544H179.684C180.089 53.544 180.436 53.6027 180.724 53.72C181.022 53.8373 181.246 54.04 181.396 54.328C181.556 54.6053 181.636 54.9893 181.636 55.48V60.936C181.636 61.48 181.55 61.9013 181.38 62.2C181.209 62.4987 180.964 62.7067 180.644 62.824C180.334 62.9413 179.972 63 179.556 63H176.852ZM177.892 62.424H179.428C179.79 62.424 180.078 62.328 180.292 62.136C180.516 61.9333 180.628 61.5493 180.628 60.984V55.608C180.628 55.0427 180.516 54.6587 180.292 54.456C180.078 54.2533 179.79 54.152 179.428 54.152H177.892V62.424ZM188.701 63.192C188.232 63.192 187.816 63.1387 187.453 63.032C187.101 62.9253 186.818 62.7067 186.605 62.376C186.402 62.0347 186.301 61.5227 186.301 60.84V55.512C186.301 54.9147 186.402 54.4667 186.605 54.168C186.818 53.8693 187.106 53.672 187.469 53.576C187.842 53.4693 188.258 53.416 188.717 53.416C189.186 53.416 189.597 53.4693 189.949 53.576C190.301 53.6827 190.578 53.8853 190.781 54.184C190.984 54.4827 191.085 54.9253 191.085 55.512V57.176H190.077V55.496C190.077 55.08 190.018 54.7707 189.901 54.568C189.784 54.3547 189.618 54.216 189.405 54.152C189.202 54.088 188.968 54.056 188.701 54.056C188.434 54.056 188.194 54.088 187.981 54.152C187.778 54.216 187.618 54.3547 187.501 54.568C187.394 54.7707 187.341 55.08 187.341 55.496V61.112C187.341 61.5387 187.394 61.8587 187.501 62.072C187.618 62.2747 187.778 62.408 187.981 62.472C188.194 62.536 188.434 62.568 188.701 62.568C188.978 62.568 189.218 62.536 189.421 62.472C189.624 62.408 189.784 62.2747 189.901 62.072C190.018 61.8587 190.077 61.5387 190.077 61.112V59.688H191.085V60.824C191.085 61.5173 190.984 62.0347 190.781 62.376C190.578 62.7067 190.301 62.9253 189.949 63.032C189.597 63.1387 189.181 63.192 188.701 63.192ZM195.06 63.192C194.601 63.192 194.196 63.1387 193.844 63.032C193.492 62.9253 193.209 62.7067 192.996 62.376C192.793 62.0347 192.692 61.5227 192.692 60.84V55.512C192.692 54.9147 192.793 54.4667 192.996 54.168C193.209 53.8693 193.497 53.672 193.86 53.576C194.222 53.4693 194.633 53.416 195.092 53.416C195.55 53.416 195.956 53.4693 196.308 53.576C196.67 53.6827 196.953 53.8853 197.156 54.184C197.369 54.4827 197.476 54.9253 197.476 55.512V60.824C197.476 61.5173 197.369 62.0347 197.156 62.376C196.953 62.7067 196.67 62.9253 196.308 63.032C195.956 63.1387 195.54 63.192 195.06 63.192ZM195.076 62.568C195.353 62.568 195.593 62.536 195.796 62.472C196.009 62.3973 196.174 62.2587 196.292 62.056C196.409 61.8427 196.468 61.528 196.468 61.112V55.512C196.468 55.096 196.409 54.7867 196.292 54.584C196.174 54.3707 196.009 54.232 195.796 54.168C195.582 54.0933 195.342 54.056 195.076 54.056C194.798 54.056 194.553 54.0933 194.34 54.168C194.137 54.232 193.977 54.3707 193.86 54.584C193.742 54.7867 193.684 55.096 193.684 55.512V61.112C193.684 61.528 193.742 61.8427 193.86 62.056C193.977 62.2587 194.137 62.3973 194.34 62.472C194.553 62.536 194.798 62.568 195.076 62.568ZM199.352 63V53.544H202.184C202.589 53.544 202.936 53.6027 203.224 53.72C203.522 53.8373 203.746 54.04 203.896 54.328C204.056 54.6053 204.136 54.9893 204.136 55.48V60.936C204.136 61.48 204.05 61.9013 203.88 62.2C203.709 62.4987 203.464 62.7067 203.144 62.824C202.834 62.9413 202.472 63 202.056 63H199.352ZM200.392 62.424H201.928C202.29 62.424 202.578 62.328 202.792 62.136C203.016 61.9333 203.128 61.5493 203.128 60.984V55.608C203.128 55.0427 203.016 54.6587 202.792 54.456C202.578 54.2533 202.29 54.152 201.928 54.152H200.392V62.424ZM206.008 63V53.544H210.088V54.264H207.048V57.656H209.48V58.456H207.048V62.28H210.088V63H206.008ZM213.662 63L215.758 53.544H217.054L219.118 63H218.03L217.518 60.808H215.198L214.718 63H213.662ZM215.23 60.248H217.502L216.382 54.776L215.23 60.248ZM220.367 63V53.544H221.247L224.207 60.936V53.544H225.119V63H224.207L221.279 55.88V63H220.367ZM227.164 63V53.544H229.996C230.402 53.544 230.748 53.6027 231.036 53.72C231.335 53.8373 231.559 54.04 231.708 54.328C231.868 54.6053 231.948 54.9893 231.948 55.48V60.936C231.948 61.48 231.863 61.9013 231.692 62.2C231.522 62.4987 231.276 62.7067 230.956 62.824C230.647 62.9413 230.284 63 229.868 63H227.164ZM228.204 62.424H229.74C230.103 62.424 230.391 62.328 230.604 62.136C230.828 61.9333 230.94 61.5493 230.94 60.984V55.608C230.94 55.0427 230.828 54.6587 230.604 54.456C230.391 54.2533 230.103 54.152 229.74 54.152H228.204V62.424ZM236.774 63V53.544H239.606C240.011 53.544 240.358 53.6027 240.646 53.72C240.944 53.8373 241.168 54.04 241.318 54.328C241.478 54.6053 241.558 54.9893 241.558 55.48V60.936C241.558 61.48 241.472 61.9013 241.302 62.2C241.131 62.4987 240.886 62.7067 240.566 62.824C240.256 62.9413 239.894 63 239.478 63H236.774ZM237.814 62.424H239.35C239.712 62.424 240 62.328 240.214 62.136C240.438 61.9333 240.55 61.5493 240.55 60.984V55.608C240.55 55.0427 240.438 54.6587 240.214 54.456C240 54.2533 239.712 54.152 239.35 54.152H237.814V62.424ZM245.638 63.192C245.179 63.192 244.774 63.1387 244.422 63.032C244.07 62.9253 243.787 62.7067 243.574 62.376C243.371 62.0347 243.27 61.5227 243.27 60.84V55.512C243.27 54.9147 243.371 54.4667 243.574 54.168C243.787 53.8693 244.075 53.672 244.438 53.576C244.801 53.4693 245.211 53.416 245.67 53.416C246.129 53.416 246.534 53.4693 246.886 53.576C247.249 53.6827 247.531 53.8853 247.734 54.184C247.947 54.4827 248.054 54.9253 248.054 55.512V60.824C248.054 61.5173 247.947 62.0347 247.734 62.376C247.531 62.7067 247.249 62.9253 246.886 63.032C246.534 63.1387 246.118 63.192 245.638 63.192ZM245.654 62.568C245.931 62.568 246.171 62.536 246.374 62.472C246.587 62.3973 246.753 62.2587 246.87 62.056C246.987 61.8427 247.046 61.528 247.046 61.112V55.512C247.046 55.096 246.987 54.7867 246.87 54.584C246.753 54.3707 246.587 54.232 246.374 54.168C246.161 54.0933 245.921 54.056 245.654 54.056C245.377 54.056 245.131 54.0933 244.918 54.168C244.715 54.232 244.555 54.3707 244.438 54.584C244.321 54.7867 244.262 55.096 244.262 55.512V61.112C244.262 61.528 244.321 61.8427 244.438 62.056C244.555 62.2587 244.715 62.3973 244.918 62.472C245.131 62.536 245.377 62.568 245.654 62.568ZM252.17 63.192C251.701 63.192 251.285 63.1387 250.922 63.032C250.57 62.9253 250.287 62.7067 250.074 62.376C249.871 62.0347 249.77 61.5227 249.77 60.84V55.512C249.77 54.9147 249.871 54.4667 250.074 54.168C250.287 53.8693 250.575 53.672 250.938 53.576C251.311 53.4693 251.727 53.416 252.186 53.416C252.655 53.416 253.066 53.4693 253.418 53.576C253.77 53.6827 254.047 53.8853 254.25 54.184C254.453 54.4827 254.554 54.9253 254.554 55.512V57.176H253.546V55.496C253.546 55.08 253.487 54.7707 253.37 54.568C253.253 54.3547 253.087 54.216 252.874 54.152C252.671 54.088 252.437 54.056 252.17 54.056C251.903 54.056 251.663 54.088 251.45 54.152C251.247 54.216 251.087 54.3547 250.97 54.568C250.863 54.7707 250.81 55.08 250.81 55.496V61.112C250.81 61.5387 250.863 61.8587 250.97 62.072C251.087 62.2747 251.247 62.408 251.45 62.472C251.663 62.536 251.903 62.568 252.17 62.568C252.447 62.568 252.687 62.536 252.89 62.472C253.093 62.408 253.253 62.2747 253.37 62.072C253.487 61.8587 253.546 61.5387 253.546 61.112V59.688H254.554V60.824C254.554 61.5173 254.453 62.0347 254.25 62.376C254.047 62.7067 253.77 62.9253 253.418 63.032C253.066 63.1387 252.65 63.192 252.17 63.192ZM258.241 63.112C257.761 63.112 257.345 63.0267 256.993 62.856C256.651 62.6853 256.385 62.4027 256.193 62.008C256.001 61.6027 255.905 61.0427 255.905 60.328V59.8C256.075 59.8 256.246 59.8 256.417 59.8C256.598 59.8 256.769 59.8 256.929 59.8V60.392C256.929 60.9253 256.982 61.3413 257.089 61.64C257.206 61.928 257.361 62.1307 257.553 62.248C257.755 62.3653 257.985 62.424 258.241 62.424C258.657 62.424 258.993 62.296 259.249 62.04C259.515 61.7733 259.649 61.304 259.649 60.632C259.649 60.152 259.579 59.7947 259.441 59.56C259.302 59.3147 259.089 59.1227 258.801 58.984C258.513 58.8347 258.161 58.6747 257.745 58.504C257.403 58.3653 257.094 58.2 256.817 58.008C256.55 57.8053 256.342 57.544 256.193 57.224C256.043 56.904 255.969 56.4987 255.969 56.008C255.969 55.4533 256.043 54.9947 256.193 54.632C256.342 54.2587 256.587 53.9813 256.929 53.8C257.27 53.6187 257.723 53.528 258.289 53.528C259.025 53.528 259.59 53.7147 259.985 54.088C260.39 54.4507 260.593 54.968 260.593 55.64V56.68C260.433 56.68 260.267 56.68 260.097 56.68C259.937 56.68 259.771 56.68 259.601 56.68V55.88C259.601 55.368 259.489 54.984 259.265 54.728C259.051 54.4613 258.731 54.328 258.305 54.328C257.835 54.328 257.494 54.4667 257.281 54.744C257.078 55.0107 256.977 55.4213 256.977 55.976C256.977 56.392 257.057 56.7227 257.217 56.968C257.377 57.2027 257.585 57.3893 257.841 57.528C258.097 57.656 258.369 57.7733 258.657 57.88C259.137 58.0613 259.526 58.2533 259.825 58.456C260.123 58.648 260.342 58.8987 260.481 59.208C260.619 59.5173 260.689 59.9493 260.689 60.504C260.689 61.1547 260.582 61.672 260.369 62.056C260.166 62.4293 259.878 62.7013 259.505 62.872C259.142 63.032 258.721 63.112 258.241 63.112Z" fill="black"/>
<path d="M117.008 83V73.544H118.016V77.672H120.784V73.544H121.776V83H120.784V78.44H118.016V83H117.008ZM126.093 83.192C125.763 83.192 125.453 83.1653 125.165 83.112C124.877 83.0587 124.621 82.9573 124.397 82.808C124.184 82.6587 124.013 82.44 123.885 82.152C123.768 81.8533 123.709 81.4587 123.709 80.968V73.544H124.717V81.176C124.717 81.56 124.781 81.848 124.909 82.04C125.037 82.232 125.203 82.3653 125.405 82.44C125.619 82.504 125.848 82.536 126.093 82.536C126.328 82.536 126.552 82.504 126.765 82.44C126.979 82.3653 127.149 82.232 127.277 82.04C127.405 81.848 127.469 81.56 127.469 81.176V73.544H128.461V80.968C128.461 81.4587 128.397 81.8533 128.269 82.152C128.152 82.44 127.987 82.6587 127.773 82.808C127.56 82.9573 127.304 83.0587 127.005 83.112C126.717 83.1653 126.413 83.192 126.093 83.192ZM130.399 83V73.544H131.583L133.631 81.24L135.727 73.544H136.863V83H135.967V75.352L133.999 83H133.279L131.311 75.352V83H130.399ZM138.115 83L140.211 73.544H141.507L143.571 83H142.483L141.971 80.808H139.651L139.171 83H138.115ZM139.683 80.248H141.955L140.835 74.776L139.683 80.248ZM144.821 83V73.544H145.701L148.661 80.936V73.544H149.573V83H148.661L145.733 75.88V83H144.821ZM156.444 83.112C155.964 83.112 155.548 83.0267 155.196 82.856C154.854 82.6853 154.588 82.4027 154.396 82.008C154.204 81.6027 154.108 81.0427 154.108 80.328V79.8C154.278 79.8 154.449 79.8 154.62 79.8C154.801 79.8 154.972 79.8 155.132 79.8V80.392C155.132 80.9253 155.185 81.3413 155.292 81.64C155.409 81.928 155.564 82.1307 155.756 82.248C155.958 82.3653 156.188 82.424 156.444 82.424C156.86 82.424 157.196 82.296 157.452 82.04C157.718 81.7733 157.852 81.304 157.852 80.632C157.852 80.152 157.782 79.7947 157.644 79.56C157.505 79.3147 157.292 79.1227 157.004 78.984C156.716 78.8347 156.364 78.6747 155.948 78.504C155.606 78.3653 155.297 78.2 155.02 78.008C154.753 77.8053 154.545 77.544 154.396 77.224C154.246 76.904 154.172 76.4987 154.172 76.008C154.172 75.4533 154.246 74.9947 154.396 74.632C154.545 74.2587 154.79 73.9813 155.132 73.8C155.473 73.6187 155.926 73.528 156.492 73.528C157.228 73.528 157.793 73.7147 158.188 74.088C158.593 74.4507 158.796 74.968 158.796 75.64V76.68C158.636 76.68 158.47 76.68 158.3 76.68C158.14 76.68 157.974 76.68 157.804 76.68V75.88C157.804 75.368 157.692 74.984 157.468 74.728C157.254 74.4613 156.934 74.328 156.508 74.328C156.038 74.328 155.697 74.4667 155.484 74.744C155.281 75.0107 155.18 75.4213 155.18 75.976C155.18 76.392 155.26 76.7227 155.42 76.968C155.58 77.2027 155.788 77.3893 156.044 77.528C156.3 77.656 156.572 77.7733 156.86 77.88C157.34 78.0613 157.729 78.2533 158.028 78.456C158.326 78.648 158.545 78.8987 158.684 79.208C158.822 79.5173 158.892 79.9493 158.892 80.504C158.892 81.1547 158.785 81.672 158.572 82.056C158.369 82.4293 158.081 82.7013 157.708 82.872C157.345 83.032 156.924 83.112 156.444 83.112ZM162.748 83.192C162.279 83.192 161.863 83.1387 161.5 83.032C161.148 82.9253 160.865 82.7067 160.652 82.376C160.449 82.0347 160.348 81.5227 160.348 80.84V75.512C160.348 74.9147 160.449 74.4667 160.652 74.168C160.865 73.8693 161.153 73.672 161.516 73.576C161.889 73.4693 162.305 73.416 162.764 73.416C163.233 73.416 163.644 73.4693 163.996 73.576C164.348 73.6827 164.625 73.8853 164.828 74.184C165.031 74.4827 165.132 74.9253 165.132 75.512V77.176H164.124V75.496C164.124 75.08 164.065 74.7707 163.948 74.568C163.831 74.3547 163.665 74.216 163.452 74.152C163.249 74.088 163.015 74.056 162.748 74.056C162.481 74.056 162.241 74.088 162.028 74.152C161.825 74.216 161.665 74.3547 161.548 74.568C161.441 74.7707 161.388 75.08 161.388 75.496V81.112C161.388 81.5387 161.441 81.8587 161.548 82.072C161.665 82.2747 161.825 82.408 162.028 82.472C162.241 82.536 162.481 82.568 162.748 82.568C163.025 82.568 163.265 82.536 163.468 82.472C163.671 82.408 163.831 82.2747 163.948 82.072C164.065 81.8587 164.124 81.5387 164.124 81.112V79.688H165.132V80.824C165.132 81.5173 165.031 82.0347 164.828 82.376C164.625 82.7067 164.348 82.9253 163.996 83.032C163.644 83.1387 163.228 83.192 162.748 83.192ZM169.107 83.192C168.648 83.192 168.243 83.1387 167.891 83.032C167.539 82.9253 167.256 82.7067 167.043 82.376C166.84 82.0347 166.739 81.5227 166.739 80.84V75.512C166.739 74.9147 166.84 74.4667 167.043 74.168C167.256 73.8693 167.544 73.672 167.907 73.576C168.269 73.4693 168.68 73.416 169.139 73.416C169.597 73.416 170.003 73.4693 170.355 73.576C170.717 73.6827 171 73.8853 171.203 74.184C171.416 74.4827 171.523 74.9253 171.523 75.512V80.824C171.523 81.5173 171.416 82.0347 171.203 82.376C171 82.7067 170.717 82.9253 170.355 83.032C170.003 83.1387 169.587 83.192 169.107 83.192ZM169.123 82.568C169.4 82.568 169.64 82.536 169.843 82.472C170.056 82.3973 170.221 82.2587 170.339 82.056C170.456 81.8427 170.515 81.528 170.515 81.112V75.512C170.515 75.096 170.456 74.7867 170.339 74.584C170.221 74.3707 170.056 74.232 169.843 74.168C169.629 74.0933 169.389 74.056 169.123 74.056C168.845 74.056 168.6 74.0933 168.387 74.168C168.184 74.232 168.024 74.3707 167.907 74.584C167.789 74.7867 167.731 75.096 167.731 75.512V81.112C167.731 81.528 167.789 81.8427 167.907 82.056C168.024 82.2587 168.184 82.3973 168.387 82.472C168.6 82.536 168.845 82.568 169.123 82.568ZM173.399 83V73.544H176.327C176.871 73.544 177.308 73.672 177.639 73.928C177.969 74.1733 178.135 74.568 178.135 75.112V76.856C178.135 77.2187 178.081 77.56 177.975 77.88C177.868 78.1893 177.671 78.44 177.383 78.632C177.095 78.824 176.679 78.92 176.135 78.92H174.439V83H173.399ZM174.439 78.328H175.831C176.257 78.328 176.577 78.2 176.791 77.944C177.015 77.6773 177.127 77.272 177.127 76.728V75.496C177.127 75.0267 177.025 74.6853 176.823 74.472C176.62 74.248 176.375 74.136 176.087 74.136H174.439V78.328ZM179.586 83V73.544H183.666V74.264H180.626V77.656H183.058V78.456H180.626V82.28H183.666V83H179.586ZM187.24 83L189.336 73.544H190.632L192.696 83H191.608L191.096 80.808H188.776L188.296 83H187.24ZM188.808 80.248H191.08L189.96 74.776L188.808 80.248ZM193.946 83V73.544H194.826L197.786 80.936V73.544H198.698V83H197.786L194.858 75.88V83H193.946ZM200.742 83V73.544H203.574C203.98 73.544 204.326 73.6027 204.614 73.72C204.913 73.8373 205.137 74.04 205.286 74.328C205.446 74.6053 205.526 74.9893 205.526 75.48V80.936C205.526 81.48 205.441 81.9013 205.27 82.2C205.1 82.4987 204.854 82.7067 204.534 82.824C204.225 82.9413 203.862 83 203.446 83H200.742ZM201.782 82.424H203.318C203.681 82.424 203.969 82.328 204.182 82.136C204.406 81.9333 204.518 81.5493 204.518 80.984V75.608C204.518 75.0427 204.406 74.6587 204.182 74.456C203.969 74.2533 203.681 74.152 203.318 74.152H201.782V82.424ZM212.592 83.192C212.122 83.192 211.706 83.1387 211.344 83.032C210.992 82.9253 210.709 82.7067 210.496 82.376C210.293 82.0347 210.192 81.5227 210.192 80.84V75.512C210.192 74.9147 210.293 74.4667 210.496 74.168C210.709 73.8693 210.997 73.672 211.36 73.576C211.733 73.4693 212.149 73.416 212.608 73.416C213.077 73.416 213.488 73.4693 213.84 73.576C214.192 73.6827 214.469 73.8853 214.672 74.184C214.874 74.4827 214.976 74.9253 214.976 75.512V77.176H213.968V75.496C213.968 75.08 213.909 74.7707 213.792 74.568C213.674 74.3547 213.509 74.216 213.296 74.152C213.093 74.088 212.858 74.056 212.592 74.056C212.325 74.056 212.085 74.088 211.872 74.152C211.669 74.216 211.509 74.3547 211.392 74.568C211.285 74.7707 211.232 75.08 211.232 75.496V81.112C211.232 81.5387 211.285 81.8587 211.392 82.072C211.509 82.2747 211.669 82.408 211.872 82.472C212.085 82.536 212.325 82.568 212.592 82.568C212.869 82.568 213.109 82.536 213.312 82.472C213.514 82.408 213.674 82.2747 213.792 82.072C213.909 81.8587 213.968 81.5387 213.968 81.112V79.688H214.976V80.824C214.976 81.5173 214.874 82.0347 214.672 82.376C214.469 82.7067 214.192 82.9253 213.84 83.032C213.488 83.1387 213.072 83.192 212.592 83.192ZM218.95 83.192C218.492 83.192 218.086 83.1387 217.734 83.032C217.382 82.9253 217.1 82.7067 216.886 82.376C216.684 82.0347 216.582 81.5227 216.582 80.84V75.512C216.582 74.9147 216.684 74.4667 216.886 74.168C217.1 73.8693 217.388 73.672 217.75 73.576C218.113 73.4693 218.524 73.416 218.982 73.416C219.441 73.416 219.846 73.4693 220.198 73.576C220.561 73.6827 220.844 73.8853 221.046 74.184C221.26 74.4827 221.366 74.9253 221.366 75.512V80.824C221.366 81.5173 221.26 82.0347 221.046 82.376C220.844 82.7067 220.561 82.9253 220.198 83.032C219.846 83.1387 219.43 83.192 218.95 83.192ZM218.966 82.568C219.244 82.568 219.484 82.536 219.686 82.472C219.9 82.3973 220.065 82.2587 220.182 82.056C220.3 81.8427 220.358 81.528 220.358 81.112V75.512C220.358 75.096 220.3 74.7867 220.182 74.584C220.065 74.3707 219.9 74.232 219.686 74.168C219.473 74.0933 219.233 74.056 218.966 74.056C218.689 74.056 218.444 74.0933 218.23 74.168C218.028 74.232 217.868 74.3707 217.75 74.584C217.633 74.7867 217.574 75.096 217.574 75.512V81.112C217.574 81.528 217.633 81.8427 217.75 82.056C217.868 82.2587 218.028 82.3973 218.23 82.472C218.444 82.536 218.689 82.568 218.966 82.568ZM223.242 83V73.544H226.218C226.752 73.544 227.184 73.672 227.514 73.928C227.845 74.1733 228.01 74.568 228.01 75.112V76.648C228.01 77.192 227.845 77.6133 227.514 77.912C227.194 78.2107 226.757 78.3707 226.202 78.392V78.376C226.544 78.3973 226.8 78.52 226.97 78.744C227.141 78.9573 227.29 79.2933 227.418 79.752L228.394 83H227.274L226.41 79.816C226.325 79.5173 226.213 79.2507 226.074 79.016C225.946 78.7707 225.733 78.648 225.434 78.648H224.282V83H223.242ZM224.282 77.928H225.69C226.181 77.928 226.522 77.816 226.714 77.592C226.917 77.3573 227.018 77.016 227.018 76.568V75.288C227.018 74.8933 226.922 74.6053 226.73 74.424C226.549 74.232 226.266 74.136 225.882 74.136H224.282V77.928ZM229.867 83V73.544H232.843C233.377 73.544 233.809 73.672 234.139 73.928C234.47 74.1733 234.635 74.568 234.635 75.112V76.648C234.635 77.192 234.47 77.6133 234.139 77.912C233.819 78.2107 233.382 78.3707 232.827 78.392V78.376C233.169 78.3973 233.425 78.52 233.595 78.744C233.766 78.9573 233.915 79.2933 234.043 79.752L235.019 83H233.899L233.035 79.816C232.95 79.5173 232.838 79.2507 232.699 79.016C232.571 78.7707 232.358 78.648 232.059 78.648H230.907V83H229.867ZM230.907 77.928H232.315C232.806 77.928 233.147 77.816 233.339 77.592C233.542 77.3573 233.643 77.016 233.643 76.568V75.288C233.643 74.8933 233.547 74.6053 233.355 74.424C233.174 74.232 232.891 74.136 232.507 74.136H230.907V77.928ZM236.492 83V73.544H240.572V74.264H237.532V77.656H239.964V78.456H237.532V82.28H240.572V83H236.492ZM244.201 83.192C243.732 83.192 243.316 83.1387 242.953 83.032C242.601 82.9253 242.318 82.7067 242.105 82.376C241.902 82.0347 241.801 81.5227 241.801 80.84V75.512C241.801 74.9147 241.902 74.4667 242.105 74.168C242.318 73.8693 242.606 73.672 242.969 73.576C243.342 73.4693 243.758 73.416 244.217 73.416C244.686 73.416 245.097 73.4693 245.449 73.576C245.801 73.6827 246.078 73.8853 246.281 74.184C246.484 74.4827 246.585 74.9253 246.585 75.512V77.176H245.577V75.496C245.577 75.08 245.518 74.7707 245.401 74.568C245.284 74.3547 245.118 74.216 244.905 74.152C244.702 74.088 244.468 74.056 244.201 74.056C243.934 74.056 243.694 74.088 243.481 74.152C243.278 74.216 243.118 74.3547 243.001 74.568C242.894 74.7707 242.841 75.08 242.841 75.496V81.112C242.841 81.5387 242.894 81.8587 243.001 82.072C243.118 82.2747 243.278 82.408 243.481 82.472C243.694 82.536 243.934 82.568 244.201 82.568C244.478 82.568 244.718 82.536 244.921 82.472C245.124 82.408 245.284 82.2747 245.401 82.072C245.518 81.8587 245.577 81.5387 245.577 81.112V79.688H246.585V80.824C246.585 81.5173 246.484 82.0347 246.281 82.376C246.078 82.7067 245.801 82.9253 245.449 83.032C245.097 83.1387 244.681 83.192 244.201 83.192ZM249.104 83V74.264H247.52V73.544H251.728V74.264H250.112V83H249.104ZM252.914 83V73.544H253.922V83H252.914ZM258.138 83.192C257.679 83.192 257.274 83.1387 256.922 83.032C256.57 82.9253 256.287 82.7067 256.074 82.376C255.871 82.0347 255.77 81.5227 255.77 80.84V75.512C255.77 74.9147 255.871 74.4667 256.074 74.168C256.287 73.8693 256.575 73.672 256.938 73.576C257.301 73.4693 257.711 73.416 258.17 73.416C258.629 73.416 259.034 73.4693 259.386 73.576C259.749 73.6827 260.031 73.8853 260.234 74.184C260.447 74.4827 260.554 74.9253 260.554 75.512V80.824C260.554 81.5173 260.447 82.0347 260.234 82.376C260.031 82.7067 259.749 82.9253 259.386 83.032C259.034 83.1387 258.618 83.192 258.138 83.192ZM258.154 82.568C258.431 82.568 258.671 82.536 258.874 82.472C259.087 82.3973 259.253 82.2587 259.37 82.056C259.487 81.8427 259.546 81.528 259.546 81.112V75.512C259.546 75.096 259.487 74.7867 259.37 74.584C259.253 74.3707 259.087 74.232 258.874 74.168C258.661 74.0933 258.421 74.056 258.154 74.056C257.877 74.056 257.631 74.0933 257.418 74.168C257.215 74.232 257.055 74.3707 256.938 74.584C256.821 74.7867 256.762 75.096 256.762 75.512V81.112C256.762 81.528 256.821 81.8427 256.938 82.056C257.055 82.2587 257.215 82.3973 257.418 82.472C257.631 82.536 257.877 82.568 258.154 82.568ZM262.43 83V73.544H263.31L266.27 80.936V73.544H267.182V83H266.27L263.342 75.88V83H262.43ZM271.1 83.112C270.62 83.112 270.204 83.0267 269.852 82.856C269.511 82.6853 269.244 82.4027 269.052 82.008C268.86 81.6027 268.764 81.0427 268.764 80.328V79.8C268.935 79.8 269.105 79.8 269.276 79.8C269.457 79.8 269.628 79.8 269.788 79.8V80.392C269.788 80.9253 269.841 81.3413 269.948 81.64C270.065 81.928 270.22 82.1307 270.412 82.248C270.615 82.3653 270.844 82.424 271.1 82.424C271.516 82.424 271.852 82.296 272.108 82.04C272.375 81.7733 272.508 81.304 272.508 80.632C272.508 80.152 272.439 79.7947 272.3 79.56C272.161 79.3147 271.948 79.1227 271.66 78.984C271.372 78.8347 271.02 78.6747 270.604 78.504C270.263 78.3653 269.953 78.2 269.676 78.008C269.409 77.8053 269.201 77.544 269.052 77.224C268.903 76.904 268.828 76.4987 268.828 76.008C268.828 75.4533 268.903 74.9947 269.052 74.632C269.201 74.2587 269.447 73.9813 269.788 73.8C270.129 73.6187 270.583 73.528 271.148 73.528C271.884 73.528 272.449 73.7147 272.844 74.088C273.249 74.4507 273.452 74.968 273.452 75.64V76.68C273.292 76.68 273.127 76.68 272.956 76.68C272.796 76.68 272.631 76.68 272.46 76.68V75.88C272.46 75.368 272.348 74.984 272.124 74.728C271.911 74.4613 271.591 74.328 271.164 74.328C270.695 74.328 270.353 74.4667 270.14 74.744C269.937 75.0107 269.836 75.4213 269.836 75.976C269.836 76.392 269.916 76.7227 270.076 76.968C270.236 77.2027 270.444 77.3893 270.7 77.528C270.956 77.656 271.228 77.7733 271.516 77.88C271.996 78.0613 272.385 78.2533 272.684 78.456C272.983 78.648 273.201 78.8987 273.34 79.208C273.479 79.5173 273.548 79.9493 273.548 80.504C273.548 81.1547 273.441 81.672 273.228 82.056C273.025 82.4293 272.737 82.7013 272.364 82.872C272.001 83.032 271.58 83.112 271.1 83.112Z" fill="black"/>
</svg>
